STARTFONT 2.1
FONT -FontForge-Tahoma-Normal-R-Normal--15-110-96-96-P-85-ISO10646-1
SIZE 11 96 96
FONTBOUNDINGBOX 21 18 -1 -3
COMMENT "Generated by fontforge, http://fontforge.sourceforge.net"
COMMENT "Created by Thinkpad,U-LUNACY-INC\Thinkpad,S-1-5-21-507921405- with FontForge 1.0 (http://fontforge.sf.net)"
STARTPROPERTIES 32
FOUNDRY "FontForge"
FAMILY_NAME "Tahoma"
WEIGHT_NAME "Normal"
SLANT "R"
SETWIDTH_NAME "Normal"
ADD_STYLE_NAME ""
PIXEL_SIZE 15
POINT_SIZE 110
RESOLUTION_X 96
RESOLUTION_Y 96
SPACING "P"
AVERAGE_WIDTH 85
CHARSET_REGISTRY "ISO10646"
CHARSET_ENCODING "1"
FONTNAME_REGISTRY ""
CHARSET_COLLECTIONS "-FontForge-Tahoma-Normal-R-Normal--13-100-96-96-P-73-ISO10646-1"
FONT_NAME "WineTahoma"
FACE_NAME "Tahoma"
FONT_VERSION "001.000"
FONT_ASCENT 12
FONT_DESCENT 3
UNDERLINE_POSITION -2
UNDERLINE_THICKNESS 1
X_HEIGHT 7
CAP_HEIGHT 10
RAW_ASCENT 806
RAW_DESCENT 194
RELATIVE_WEIGHT 40
RELATIVE_SETWIDTH 50
FIGURE_WIDTH 8
AVG_LOWERCASE_WIDTH 74
AVG_UPPERCASE_WIDTH 93
ENDPROPERTIES
CHARS 348
STARTCHAR exclam
ENCODING 33
SWIDTH 332 0
DWIDTH 4 0
BBX 1 11 1 0
BITMAP
80
80
80
80
80
80
80
80
00
80
80
ENDCHAR
STARTCHAR quotedbl
ENCODING 34
SWIDTH 400 0
DWIDTH 6 0
BBX 4 4 1 8
BITMAP
90
90
90
90
ENDCHAR
STARTCHAR numbersign
ENCODING 35
SWIDTH 728 0
DWIDTH 11 0
BBX 9 11 1 0
BITMAP
0900
0900
1200
7F80
1200
1200
2400
FF00
2400
4800
4800
ENDCHAR
STARTCHAR dollar
ENCODING 36
SWIDTH 545 0
DWIDTH 8 0
BBX 6 15 1 -3
BITMAP
10
10
78
94
90
90
70
18
14
14
94
78
10
10
10
ENDCHAR
STARTCHAR percent
ENCODING 37
SWIDTH 977 0
DWIDTH 15 0
BBX 13 11 1 0
BITMAP
7040
8880
8880
8900
8900
7270
0288
0488
0888
0888
1070
ENDCHAR
STARTCHAR ampersand
ENCODING 38
SWIDTH 673 0
DWIDTH 10 0
BBX 9 11 0 0
BITMAP
3C00
4000
4000
4000
2000
5080
8880
8500
8200
4200
3D80
ENDCHAR
STARTCHAR quotesingle
ENCODING 39
SWIDTH 210 0
DWIDTH 3 0
BBX 1 4 1 8
BITMAP
80
80
80
80
ENDCHAR
STARTCHAR parenleft
ENCODING 40
SWIDTH 382 0
DWIDTH 6 0
BBX 4 15 1 -3
BITMAP
10
20
40
40
80
80
80
80
80
80
80
40
40
20
10
ENDCHAR
STARTCHAR parenright
ENCODING 41
SWIDTH 382 0
DWIDTH 6 0
BBX 4 15 1 -3
BITMAP
80
40
20
20
10
10
10
10
10
10
10
20
20
40
80
ENDCHAR
STARTCHAR asterisk
ENCODING 42
SWIDTH 545 0
DWIDTH 8 0
BBX 7 7 1 5
BITMAP
10
92
54
38
54
92
10
ENDCHAR
STARTCHAR plus
ENCODING 43
SWIDTH 728 0
DWIDTH 11 0
BBX 9 9 1 0
BITMAP
0800
0800
0800
0800
FF80
0800
0800
0800
0800
ENDCHAR
STARTCHAR comma
ENCODING 44
SWIDTH 303 0
DWIDTH 5 0
BBX 2 5 1 -3
BITMAP
40
40
40
80
80
ENDCHAR
STARTCHAR hyphen
ENCODING 45
SWIDTH 362 0
DWIDTH 5 0
BBX 4 1 0 4
BITMAP
F0
ENDCHAR
STARTCHAR period
ENCODING 46
SWIDTH 303 0
DWIDTH 5 0
BBX 1 2 2 0
BITMAP
80
80
ENDCHAR
STARTCHAR slash
ENCODING 47
SWIDTH 381 0
DWIDTH 6 0
BBX 6 14 0 -2
BITMAP
04
08
08
08
10
10
10
20
20
20
40
40
40
80
ENDCHAR
STARTCHAR zero
ENCODING 48
SWIDTH 545 0
DWIDTH 8 0
BBX 7 11 0 0
BITMAP
38
44
82
82
82
82
82
82
82
44
38
ENDCHAR
STARTCHAR one
ENCODING 49
SWIDTH 545 0
DWIDTH 8 0
BBX 5 11 2 0
BITMAP
60
A0
20
20
20
20
20
20
20
20
F8
ENDCHAR
STARTCHAR two
ENCODING 50
SWIDTH 545 0
DWIDTH 8 0
BBX 6 11 1 0
BITMAP
70
88
04
04
04
08
10
20
40
80
FC
ENDCHAR
STARTCHAR three
ENCODING 51
SWIDTH 545 0
DWIDTH 8 0
BBX 7 11 0 0
BITMAP
78
84
02
02
04
38
04
02
02
84
78
ENDCHAR
STARTCHAR four
ENCODING 52
SWIDTH 545 0
DWIDTH 8 0
BBX 7 11 0 0
BITMAP
04
0C
14
24
44
84
FE
04
04
04
04
ENDCHAR
STARTCHAR five
ENCODING 53
SWIDTH 545 0
DWIDTH 8 0
BBX 7 11 0 0
BITMAP
FE
80
80
80
F8
04
02
02
02
84
78
ENDCHAR
STARTCHAR six
ENCODING 54
SWIDTH 545 0
DWIDTH 8 0
BBX 7 11 0 0
BITMAP
1C
60
40
80
F8
84
82
82
82
44
38
ENDCHAR
STARTCHAR seven
ENCODING 55
SWIDTH 545 0
DWIDTH 8 0
BBX 7 11 0 0
BITMAP
FE
02
04
04
08
08
10
10
20
20
40
ENDCHAR
STARTCHAR eight
ENCODING 56
SWIDTH 545 0
DWIDTH 8 0
BBX 7 11 0 0
BITMAP
38
44
82
82
44
38
44
82
82
44
38
ENDCHAR
STARTCHAR nine
ENCODING 57
SWIDTH 545 0
DWIDTH 8 0
BBX 7 11 0 0
BITMAP
38
44
82
82
82
42
3E
02
04
0C
70
ENDCHAR
STARTCHAR colon
ENCODING 58
SWIDTH 354 0
DWIDTH 5 0
BBX 1 8 2 0
BITMAP
80
80
00
00
00
00
80
80
ENDCHAR
STARTCHAR semicolon
ENCODING 59
SWIDTH 354 0
DWIDTH 5 0
BBX 2 11 1 -3
BITMAP
40
40
00
00
00
00
40
40
40
80
80
ENDCHAR
STARTCHAR less
ENCODING 60
SWIDTH 728 0
DWIDTH 11 0
BBX 8 9 1 1
BITMAP
01
06
18
60
80
60
18
06
01
ENDCHAR
STARTCHAR equal
ENCODING 61
SWIDTH 728 0
DWIDTH 11 0
BBX 8 4 1 3
BITMAP
FF
00
00
FF
ENDCHAR
STARTCHAR greater
ENCODING 62
SWIDTH 728 0
DWIDTH 11 0
BBX 8 9 2 1
BITMAP
80
60
18
06
01
06
18
60
80
ENDCHAR
STARTCHAR question
ENCODING 63
SWIDTH 474 0
DWIDTH 7 0
BBX 6 11 0 0
BITMAP
78
84
04
04
08
10
20
20
00
20
20
ENDCHAR
STARTCHAR at
ENCODING 64
SWIDTH 909 0
DWIDTH 14 0
BBX 12 13 1 -2
BITMAP
1F80
2040
4020
8790
8890
9090
9090
9090
9090
8FE0
4000
2000
1F80
ENDCHAR
STARTCHAR A
ENCODING 65
SWIDTH 600 0
DWIDTH 9 0
BBX 8 11 0 0
BITMAP
18
18
24
24
24
24
42
7E
42
81
81
ENDCHAR
STARTCHAR B
ENCODING 66
SWIDTH 588 0
DWIDTH 9 0
BBX 8 11 0 0
BITMAP
FC
82
82
82
FC
82
81
81
81
82
FC
ENDCHAR
STARTCHAR C
ENCODING 67
SWIDTH 601 0
DWIDTH 9 0
BBX 8 11 0 0
BITMAP
1E
21
40
80
80
80
80
80
40
21
1E
ENDCHAR
STARTCHAR D
ENCODING 68
SWIDTH 678 0
DWIDTH 10 0
BBX 9 11 0 0
BITMAP
FC00
8200
8100
8080
8080
8080
8080
8080
8100
8200
FC00
ENDCHAR
STARTCHAR E
ENCODING 69
SWIDTH 561 0
DWIDTH 8 0
BBX 7 11 0 0
BITMAP
FE
80
80
80
FE
80
80
80
80
80
FE
ENDCHAR
STARTCHAR F
ENCODING 70
SWIDTH 520 0
DWIDTH 8 0
BBX 7 11 0 0
BITMAP
FE
80
80
80
FE
80
80
80
80
80
80
ENDCHAR
STARTCHAR G
ENCODING 71
SWIDTH 666 0
DWIDTH 10 0
BBX 9 11 0 0
BITMAP
1F00
2080
4000
8000
8000
8780
8080
8080
4080
2080
1F00
ENDCHAR
STARTCHAR H
ENCODING 72
SWIDTH 674 0
DWIDTH 10 0
BBX 9 11 0 0
BITMAP
8080
8080
8080
8080
FF80
8080
8080
8080
8080
8080
8080
ENDCHAR
STARTCHAR I
ENCODING 73
SWIDTH 373 0
DWIDTH 6 0
BBX 3 11 1 0
BITMAP
E0
40
40
40
40
40
40
40
40
40
E0
ENDCHAR
STARTCHAR J
ENCODING 74
SWIDTH 416 0
DWIDTH 6 0
BBX 4 14 0 -3
BITMAP
10
10
10
10
10
10
10
10
10
10
10
10
10
E0
ENDCHAR
STARTCHAR K
ENCODING 75
SWIDTH 587 0
DWIDTH 9 0
BBX 8 11 0 0
BITMAP
82
84
88
90
A0
E0
90
88
84
82
81
ENDCHAR
STARTCHAR L
ENCODING 76
SWIDTH 498 0
DWIDTH 7 0
BBX 6 11 0 0
BITMAP
80
80
80
80
80
80
80
80
80
80
FC
ENDCHAR
STARTCHAR M
ENCODING 77
SWIDTH 770 0
DWIDTH 12 0
BBX 11 11 0 0
BITMAP
C060
A0A0
A0A0
9120
9120
8A20
8A20
8420
8020
8020
8020
ENDCHAR
STARTCHAR N
ENCODING 78
SWIDTH 666 0
DWIDTH 10 0
BBX 9 11 0 0
BITMAP
8080
C080
A080
9080
9080
8880
8480
8280
8280
8180
8080
ENDCHAR
STARTCHAR O
ENCODING 79
SWIDTH 708 0
DWIDTH 11 0
BBX 10 11 0 0
BITMAP
1E00
2100
4080
8040
8040
8040
8040
8040
4080
2100
1E00
ENDCHAR
STARTCHAR P
ENCODING 80
SWIDTH 550 0
DWIDTH 8 0
BBX 7 11 0 0
BITMAP
F8
84
82
82
82
84
F8
80
80
80
80
ENDCHAR
STARTCHAR Q
ENCODING 81
SWIDTH 708 0
DWIDTH 11 0
BBX 10 13 0 -2
BITMAP
1E00
2100
4080
8040
8040
8040
8040
8040
4080
2100
1E00
0200
0180
ENDCHAR
STARTCHAR R
ENCODING 82
SWIDTH 621 0
DWIDTH 9 0
BBX 8 11 0 0
BITMAP
F8
84
84
84
84
88
F0
88
84
82
81
ENDCHAR
STARTCHAR S
ENCODING 83
SWIDTH 557 0
DWIDTH 8 0
BBX 7 11 0 0
BITMAP
3C
42
80
80
40
38
04
02
02
84
78
ENDCHAR
STARTCHAR T
ENCODING 84
SWIDTH 583 0
DWIDTH 10 0
BBX 9 11 0 0
BITMAP
FF80
0800
0800
0800
0800
0800
0800
0800
0800
0800
0800
ENDCHAR
STARTCHAR U
ENCODING 85
SWIDTH 655 0
DWIDTH 10 0
BBX 9 11 0 0
BITMAP
8080
8080
8080
8080
8080
8080
8080
8080
8080
4100
3E00
ENDCHAR
STARTCHAR V
ENCODING 86
SWIDTH 597 0
DWIDTH 9 0
BBX 8 11 0 0
BITMAP
81
81
42
42
42
24
24
24
18
18
18
ENDCHAR
STARTCHAR W
ENCODING 87
SWIDTH 901 0
DWIDTH 14 0
BBX 13 11 0 0
BITMAP
8208
8508
4510
4510
4510
4890
28A0
28A0
28A0
3060
1040
ENDCHAR
STARTCHAR X
ENCODING 88
SWIDTH 581 0
DWIDTH 9 0
BBX 8 11 0 0
BITMAP
81
42
42
24
18
18
18
24
42
42
81
ENDCHAR
STARTCHAR Y
ENCODING 89
SWIDTH 576 0
DWIDTH 10 0
BBX 9 11 0 0
BITMAP
8080
4100
2200
2200
1400
0800
0800
0800
0800
0800
0800
ENDCHAR
STARTCHAR Z
ENCODING 90
SWIDTH 559 0
DWIDTH 8 0
BBX 7 11 0 0
BITMAP
FE
02
04
08
08
10
20
20
40
80
FE
ENDCHAR
STARTCHAR bracketleft
ENCODING 91
SWIDTH 382 0
DWIDTH 6 0
BBX 4 15 1 -3
BITMAP
F0
80
80
80
80
80
80
80
80
80
80
80
80
80
F0
ENDCHAR
STARTCHAR backslash
ENCODING 92
SWIDTH 381 0
DWIDTH 6 0
BBX 6 14 0 -2
BITMAP
80
80
40
40
20
20
20
10
10
10
08
08
08
04
ENDCHAR
STARTCHAR bracketright
ENCODING 93
SWIDTH 382 0
DWIDTH 6 0
BBX 4 15 1 -3
BITMAP
F0
10
10
10
10
10
10
10
10
10
10
10
10
10
F0
ENDCHAR
STARTCHAR asciicircum
ENCODING 94
SWIDTH 728 0
DWIDTH 11 0
BBX 9 5 1 6
BITMAP
0800
1400
2200
4100
8080
ENDCHAR
STARTCHAR underscore
ENCODING 95
SWIDTH 545 0
DWIDTH 8 0
BBX 8 1 0 -2
BITMAP
FF
ENDCHAR
STARTCHAR grave
ENCODING 96
SWIDTH 545 0
DWIDTH 8 0
BBX 2 3 2 9
BITMAP
80
80
40
ENDCHAR
STARTCHAR a
ENCODING 97
SWIDTH 524 0
DWIDTH 8 0
BBX 7 8 0 0
BITMAP
3C
42
02
3E
42
82
86
7A
ENDCHAR
STARTCHAR b
ENCODING 98
SWIDTH 553 0
DWIDTH 8 0
BBX 7 12 0 0
BITMAP
80
80
80
80
B8
C4
82
82
82
82
84
F8
ENDCHAR
STARTCHAR c
ENCODING 99
SWIDTH 460 0
DWIDTH 7 0
BBX 6 8 0 0
BITMAP
38
44
80
80
80
80
44
38
ENDCHAR
STARTCHAR d
ENCODING 100
SWIDTH 553 0
DWIDTH 8 0
BBX 7 12 0 0
BITMAP
02
02
02
02
3E
42
82
82
82
82
46
3A
ENDCHAR
STARTCHAR e
ENCODING 101
SWIDTH 525 0
DWIDTH 8 0
BBX 7 8 0 0
BITMAP
38
44
82
FE
80
80
42
3C
ENDCHAR
STARTCHAR f
ENCODING 102
SWIDTH 317 0
DWIDTH 5 0
BBX 5 12 0 0
BITMAP
38
40
40
40
F0
40
40
40
40
40
40
40
ENDCHAR
STARTCHAR g
ENCODING 103
SWIDTH 553 0
DWIDTH 8 0
BBX 7 11 0 -3
BITMAP
3E
42
82
82
82
82
46
3A
02
44
38
ENDCHAR
STARTCHAR h
ENCODING 104
SWIDTH 558 0
DWIDTH 8 0
BBX 7 12 0 0
BITMAP
80
80
80
80
BC
C2
82
82
82
82
82
82
ENDCHAR
STARTCHAR i
ENCODING 105
SWIDTH 229 0
DWIDTH 2 0
BBX 1 11 0 0
BITMAP
80
00
00
80
80
80
80
80
80
80
80
ENDCHAR
STARTCHAR j
ENCODING 106
SWIDTH 282 0
DWIDTH 4 0
BBX 3 14 0 -3
BITMAP
20
00
00
20
20
20
20
20
20
20
20
20
20
C0
ENDCHAR
STARTCHAR k
ENCODING 107
SWIDTH 498 0
DWIDTH 7 0
BBX 6 12 0 0
BITMAP
80
80
80
80
88
90
A0
C0
A0
90
88
84
ENDCHAR
STARTCHAR l
ENCODING 108
SWIDTH 229 0
DWIDTH 2 0
BBX 1 12 0 0
BITMAP
80
80
80
80
80
80
80
80
80
80
80
80
ENDCHAR
STARTCHAR m
ENCODING 109
SWIDTH 839 0
DWIDTH 13 0
BBX 11 8 1 0
BITMAP
B9C0
C620
8420
8420
8420
8420
8420
8420
ENDCHAR
STARTCHAR n
ENCODING 110
SWIDTH 558 0
DWIDTH 8 0
BBX 7 8 0 0
BITMAP
BC
C2
82
82
82
82
82
82
ENDCHAR
STARTCHAR o
ENCODING 111
SWIDTH 542 0
DWIDTH 8 0
BBX 7 8 0 0
BITMAP
38
44
82
82
82
82
44
38
ENDCHAR
STARTCHAR p
ENCODING 112
SWIDTH 553 0
DWIDTH 8 0
BBX 7 11 0 -3
BITMAP
B8
C4
82
82
82
82
84
F8
80
80
80
ENDCHAR
STARTCHAR q
ENCODING 113
SWIDTH 553 0
DWIDTH 8 0
BBX 7 11 0 -3
BITMAP
3E
42
82
82
82
82
46
3A
02
02
02
ENDCHAR
STARTCHAR r
ENCODING 114
SWIDTH 359 0
DWIDTH 5 0
BBX 4 8 0 0
BITMAP
B0
C0
80
80
80
80
80
80
ENDCHAR
STARTCHAR s
ENCODING 115
SWIDTH 445 0
DWIDTH 7 0
BBX 6 8 0 0
BITMAP
78
84
80
60
18
04
84
78
ENDCHAR
STARTCHAR t
ENCODING 116
SWIDTH 333 0
DWIDTH 5 0
BBX 5 10 0 0
BITMAP
40
40
F8
40
40
40
40
40
40
38
ENDCHAR
STARTCHAR u
ENCODING 117
SWIDTH 558 0
DWIDTH 8 0
BBX 7 8 0 0
BITMAP
82
82
82
82
82
82
86
7A
ENDCHAR
STARTCHAR v
ENCODING 118
SWIDTH 498 0
DWIDTH 8 0
BBX 7 8 0 0
BITMAP
82
82
44
44
28
28
10
10
ENDCHAR
STARTCHAR w
ENCODING 119
SWIDTH 742 0
DWIDTH 10 0
BBX 9 8 0 0
BITMAP
8880
8880
9480
5500
5500
6300
2200
2200
ENDCHAR
STARTCHAR x
ENCODING 120
SWIDTH 495 0
DWIDTH 8 0
BBX 7 8 0 0
BITMAP
82
44
28
10
10
28
44
82
ENDCHAR
STARTCHAR y
ENCODING 121
SWIDTH 498 0
DWIDTH 8 0
BBX 7 11 0 -3
BITMAP
82
82
44
44
28
28
10
10
10
20
20
ENDCHAR
STARTCHAR z
ENCODING 122
SWIDTH 443 0
DWIDTH 7 0
BBX 6 8 0 0
BITMAP
FC
04
08
10
20
40
80
FC
ENDCHAR
STARTCHAR braceleft
ENCODING 123
SWIDTH 479 0
DWIDTH 7 0
BBX 6 15 0 -3
BITMAP
1C
20
20
20
20
20
20
C0
20
20
20
20
20
20
1C
ENDCHAR
STARTCHAR bar
ENCODING 124
SWIDTH 381 0
DWIDTH 6 0
BBX 1 15 2 -3
BITMAP
80
80
80
80
80
80
80
80
80
80
80
80
80
80
80
ENDCHAR
STARTCHAR braceright
ENCODING 125
SWIDTH 479 0
DWIDTH 7 0
BBX 6 15 0 -3
BITMAP
E0
10
10
10
10
10
10
0C
10
10
10
10
10
10
E0
ENDCHAR
STARTCHAR asciitilde
ENCODING 126
SWIDTH 728 0
DWIDTH 11 0
BBX 9 4 1 3
BITMAP
7080
8880
8480
8300
ENDCHAR
STARTCHAR uni007F
ENCODING 127
SWIDTH 488 0
DWIDTH 15 0
BBX 11 11 2 0
BITMAP
FFE0
8020
8020
8020
8020
8020
8020
8020
8020
8020
FFE0
ENDCHAR
STARTCHAR uni00A0
ENCODING 160
SWIDTH 312 0
DWIDTH 5 0
BBX 1 1 0 0
BITMAP
00
ENDCHAR
STARTCHAR exclamdown
ENCODING 161
SWIDTH 332 0
DWIDTH 4 0
BBX 1 11 1 0
BITMAP
80
80
00
80
80
80
80
80
80
80
80
ENDCHAR
STARTCHAR cent
ENCODING 162
SWIDTH 545 0
DWIDTH 8 0
BBX 6 14 1 -3
BITMAP
10
10
10
38
54
90
90
90
90
54
38
10
10
10
ENDCHAR
STARTCHAR sterling
ENCODING 163
SWIDTH 545 0
DWIDTH 8 0
BBX 7 11 1 0
BITMAP
1C
22
20
20
20
20
FC
20
20
40
FE
ENDCHAR
STARTCHAR currency
ENCODING 164
SWIDTH 545 0
DWIDTH 8 0
BBX 7 7 0 1
BITMAP
82
7C
44
44
44
7C
82
ENDCHAR
STARTCHAR yen
ENCODING 165
SWIDTH 545 0
DWIDTH 8 0
BBX 7 11 0 0
BITMAP
82
44
44
28
28
10
10
7C
10
10
10
ENDCHAR
STARTCHAR brokenbar
ENCODING 166
SWIDTH 381 0
DWIDTH 6 0
BBX 1 15 2 -3
BITMAP
80
80
80
80
80
80
00
00
00
80
80
80
80
80
80
ENDCHAR
STARTCHAR section
ENCODING 167
SWIDTH 545 0
DWIDTH 8 0
BBX 6 14 1 -3
BITMAP
78
84
80
80
60
98
84
84
64
18
04
04
84
78
ENDCHAR
STARTCHAR dieresis
ENCODING 168
SWIDTH 545 0
DWIDTH 8 0
BBX 4 1 2 9
BITMAP
90
ENDCHAR
STARTCHAR copyright
ENCODING 169
SWIDTH 929 0
DWIDTH 14 0
BBX 13 13 0 -2
BITMAP
0F80
3060
4010
4710
8888
9008
9008
9008
8888
4710
4010
3060
0F80
ENDCHAR
STARTCHAR ordfeminine
ENCODING 170
SWIDTH 493 0
DWIDTH 7 0
BBX 6 7 0 4
BITMAP
78
04
3C
44
84
8C
74
ENDCHAR
STARTCHAR guillemotleft
ENCODING 171
SWIDTH 573 0
DWIDTH 9 0
BBX 7 7 1 1
BITMAP
12
24
48
90
48
24
12
ENDCHAR
STARTCHAR logicalnot
ENCODING 172
SWIDTH 728 0
DWIDTH 11 0
BBX 9 5 1 1
BITMAP
FF80
0080
0080
0080
0080
ENDCHAR
STARTCHAR uni00AD
ENCODING 173
SWIDTH 363 0
DWIDTH 5 0
BBX 4 1 0 4
BITMAP
F0
ENDCHAR
STARTCHAR registered
ENCODING 174
SWIDTH 929 0
DWIDTH 14 0
BBX 13 13 0 -2
BITMAP
0F80
3060
4010
4F10
8888
8888
8F08
8908
8888
4850
4010
3060
0F80
ENDCHAR
STARTCHAR macron
ENCODING 175
SWIDTH 545 0
DWIDTH 8 0
BBX 8 1 0 12
BITMAP
FF
ENDCHAR
STARTCHAR degree
ENCODING 176
SWIDTH 471 0
DWIDTH 7 0
BBX 6 6 0 5
BITMAP
78
84
84
84
84
78
ENDCHAR
STARTCHAR plusminus
ENCODING 177
SWIDTH 728 0
DWIDTH 11 0
BBX 9 9 1 2
BITMAP
0800
0800
0800
0800
FF80
0800
0800
0800
FF80
ENDCHAR
STARTCHAR uni00B2
ENCODING 178
SWIDTH 493 0
DWIDTH 7 0
BBX 5 7 1 4
BITMAP
70
88
08
10
20
40
F8
ENDCHAR
STARTCHAR uni00B3
ENCODING 179
SWIDTH 493 0
DWIDTH 7 0
BBX 5 7 1 4
BITMAP
70
88
08
70
08
88
70
ENDCHAR
STARTCHAR acute
ENCODING 180
SWIDTH 545 0
DWIDTH 8 0
BBX 2 3 3 9
BITMAP
40
40
80
ENDCHAR
STARTCHAR uni00B5
ENCODING 181
SWIDTH 567 0
DWIDTH 9 0
BBX 8 11 0 -3
BITMAP
81
81
81
81
81
81
C3
BD
80
80
80
ENDCHAR
STARTCHAR paragraph
ENCODING 182
SWIDTH 545 0
DWIDTH 8 0
BBX 7 14 0 -3
BITMAP
7E
F2
F2
F2
F2
F2
72
12
12
12
12
12
12
12
ENDCHAR
STARTCHAR periodcentered
ENCODING 183
SWIDTH 303 0
DWIDTH 5 0
BBX 1 2 2 6
BITMAP
80
80
ENDCHAR
STARTCHAR cedilla
ENCODING 184
SWIDTH 545 0
DWIDTH 8 0
BBX 4 3 2 -3
BITMAP
10
10
E0
ENDCHAR
STARTCHAR uni00B9
ENCODING 185
SWIDTH 493 0
DWIDTH 7 0
BBX 3 7 2 4
BITMAP
C0
40
40
40
40
40
E0
ENDCHAR
STARTCHAR ordmasculine
ENCODING 186
SWIDTH 493 0
DWIDTH 7 0
BBX 6 7 0 4
BITMAP
30
48
84
84
84
48
30
ENDCHAR
STARTCHAR guillemotright
ENCODING 187
SWIDTH 573 0
DWIDTH 9 0
BBX 7 7 1 1
BITMAP
90
48
24
12
24
48
90
ENDCHAR
STARTCHAR onequarter
ENCODING 188
SWIDTH 1000 0
DWIDTH 15 0
BBX 12 11 1 0
BITMAP
6080
A100
2100
2200
2220
2460
F8A0
08A0
11F0
1020
2020
ENDCHAR
STARTCHAR onehalf
ENCODING 189
SWIDTH 1000 0
DWIDTH 15 0
BBX 13 11 1 0
BITMAP
6100
A100
2200
2200
2470
2488
F808
0810
1020
1040
20F8
ENDCHAR
STARTCHAR threequarters
ENCODING 190
SWIDTH 1000 0
DWIDTH 15 0
BBX 12 11 1 0
BITMAP
7040
8880
0880
7100
0920
8A60
72A0
0520
05F0
0820
1020
ENDCHAR
STARTCHAR questiondown
ENCODING 191
SWIDTH 474 0
DWIDTH 7 0
BBX 6 11 0 0
BITMAP
10
10
00
10
10
20
40
80
80
84
78
ENDCHAR
STARTCHAR Agrave
ENCODING 192
SWIDTH 600 0
DWIDTH 9 0
BBX 8 15 0 0
BITMAP
10
10
08
00
18
18
24
24
24
24
42
7E
42
81
81
ENDCHAR
STARTCHAR Aacute
ENCODING 193
SWIDTH 600 0
DWIDTH 9 0
BBX 8 15 0 0
BITMAP
08
08
10
00
18
18
24
24
24
24
42
7E
42
81
81
ENDCHAR
STARTCHAR Acircumflex
ENCODING 194
SWIDTH 600 0
DWIDTH 9 0
BBX 8 15 0 0
BITMAP
08
14
22
00
18
18
24
24
24
24
42
7E
42
81
81
ENDCHAR
STARTCHAR Atilde
ENCODING 195
SWIDTH 600 0
DWIDTH 9 0
BBX 8 14 0 0
BITMAP
32
4C
00
18
18
24
24
24
24
42
7E
42
81
81
ENDCHAR
STARTCHAR Adieresis
ENCODING 196
SWIDTH 600 0
DWIDTH 9 0
BBX 8 13 0 0
BITMAP
24
00
18
18
24
24
24
24
42
7E
42
81
81
ENDCHAR
STARTCHAR Aring
ENCODING 197
SWIDTH 600 0
DWIDTH 9 0
BBX 8 14 0 0
BITMAP
18
24
24
18
18
24
24
24
24
42
7E
42
81
81
ENDCHAR
STARTCHAR AE
ENCODING 198
SWIDTH 913 0
DWIDTH 14 0
BBX 13 11 0 0
BITMAP
0FF8
1200
1200
1200
23F8
2200
7E00
4200
4200
8200
83F8
ENDCHAR
STARTCHAR Ccedilla
ENCODING 199
SWIDTH 601 0
DWIDTH 9 0
BBX 8 14 0 -3
BITMAP
1E
61
40
80
80
80
80
80
40
61
1E
04
04
38
ENDCHAR
STARTCHAR Egrave
ENCODING 200
SWIDTH 561 0
DWIDTH 8 0
BBX 7 15 0 0
BITMAP
10
10
08
00
FE
80
80
80
FE
80
80
80
80
80
FE
ENDCHAR
STARTCHAR Eacute
ENCODING 201
SWIDTH 561 0
DWIDTH 8 0
BBX 7 15 0 0
BITMAP
08
08
10
00
FE
80
80
80
FE
80
80
80
80
80
FE
ENDCHAR
STARTCHAR Ecircumflex
ENCODING 202
SWIDTH 561 0
DWIDTH 8 0
BBX 7 15 0 0
BITMAP
10
28
44
00
FE
80
80
80
FE
80
80
80
80
80
FE
ENDCHAR
STARTCHAR Edieresis
ENCODING 203
SWIDTH 561 0
DWIDTH 8 0
BBX 7 13 0 0
BITMAP
24
00
FE
80
80
80
FE
80
80
80
80
80
FE
ENDCHAR
STARTCHAR Igrave
ENCODING 204
SWIDTH 373 0
DWIDTH 6 0
BBX 3 15 0 0
BITMAP
80
80
40
00
E0
40
40
40
40
40
40
40
40
40
E0
ENDCHAR
STARTCHAR Iacute
ENCODING 205
SWIDTH 373 0
DWIDTH 6 0
BBX 3 15 1 0
BITMAP
20
20
40
00
E0
40
40
40
40
40
40
40
40
40
E0
ENDCHAR
STARTCHAR Icircumflex
ENCODING 206
SWIDTH 373 0
DWIDTH 6 0
BBX 5 15 0 0
BITMAP
20
50
88
00
70
20
20
20
20
20
20
20
20
20
70
ENDCHAR
STARTCHAR Idieresis
ENCODING 207
SWIDTH 373 0
DWIDTH 6 0
BBX 3 13 1 0
BITMAP
A0
00
E0
40
40
40
40
40
40
40
40
40
E0
ENDCHAR
STARTCHAR Eth
ENCODING 208
SWIDTH 698 0
DWIDTH 10 0
BBX 9 11 0 0
BITMAP
7C00
4300
4100
4080
F880
4080
4080
4080
4100
4300
7C00
ENDCHAR
STARTCHAR Ntilde
ENCODING 209
SWIDTH 666 0
DWIDTH 10 0
BBX 9 14 0 0
BITMAP
1900
2600
0000
8080
C080
A080
9080
9080
8880
8480
8280
8280
8180
8080
ENDCHAR
STARTCHAR Ograve
ENCODING 210
SWIDTH 708 0
DWIDTH 11 0
BBX 10 15 0 0
BITMAP
0800
0800
0400
0000
1E00
6180
4080
8040
8040
8040
8040
8040
4080
6180
1E00
ENDCHAR
STARTCHAR Oacute
ENCODING 211
SWIDTH 708 0
DWIDTH 11 0
BBX 10 15 0 0
BITMAP
0400
0400
0800
0000
1E00
6180
4080
8040
8040
8040
8040
8040
4080
6180
1E00
ENDCHAR
STARTCHAR Ocircumflex
ENCODING 212
SWIDTH 708 0
DWIDTH 11 0
BBX 10 15 0 0
BITMAP
0400
0A00
1100
0000
1E00
6180
4080
8040
8040
8040
8040
8040
4080
6180
1E00
ENDCHAR
STARTCHAR Otilde
ENCODING 213
SWIDTH 708 0
DWIDTH 11 0
BBX 10 14 0 0
BITMAP
1900
2600
0000
1E00
6180
4080
8040
8040
8040
8040
8040
4080
6180
1E00
ENDCHAR
STARTCHAR Odieresis
ENCODING 214
SWIDTH 708 0
DWIDTH 11 0
BBX 10 13 0 0
BITMAP
1200
0000
1E00
6180
4080
8040
8040
8040
8040
8040
4080
6180
1E00
ENDCHAR
STARTCHAR multiply
ENCODING 215
SWIDTH 728 0
DWIDTH 11 0
BBX 7 7 2 1
BITMAP
82
44
28
10
28
44
82
ENDCHAR
STARTCHAR Oslash
ENCODING 216
SWIDTH 708 0
DWIDTH 11 0
BBX 10 13 0 -1
BITMAP
0040
1E80
6180
4180
8240
8440
8C40
8840
9040
6080
6180
5E00
8000
ENDCHAR
STARTCHAR Ugrave
ENCODING 217
SWIDTH 655 0
DWIDTH 10 0
BBX 9 15 0 0
BITMAP
0800
0800
0400
0000
8080
8080
8080
8080
8080
8080
8080
8080
8080
4100
3E00
ENDCHAR
STARTCHAR Uacute
ENCODING 218
SWIDTH 655 0
DWIDTH 10 0
BBX 9 15 0 0
BITMAP
0400
0400
0800
0000
8080
8080
8080
8080
8080
8080
8080
8080
8080
4100
3E00
ENDCHAR
STARTCHAR Ucircumflex
ENCODING 219
SWIDTH 655 0
DWIDTH 10 0
BBX 9 15 0 0
BITMAP
0800
1400
2200
0000
8080
8080
8080
8080
8080
8080
8080
8080
8080
4100
3E00
ENDCHAR
STARTCHAR Udieresis
ENCODING 220
SWIDTH 655 0
DWIDTH 10 0
BBX 9 13 0 0
BITMAP
2200
0000
8080
8080
8080
8080
8080
8080
8080
8080
8080
4100
3E00
ENDCHAR
STARTCHAR Yacute
ENCODING 221
SWIDTH 576 0
DWIDTH 10 0
BBX 9 15 0 0
BITMAP
0400
0400
0800
0000
8080
4100
2200
2200
1400
0800
0800
0800
0800
0800
0800
ENDCHAR
STARTCHAR Thorn
ENCODING 222
SWIDTH 564 0
DWIDTH 8 0
BBX 7 11 0 0
BITMAP
80
80
F8
84
82
82
82
84
F8
80
80
ENDCHAR
STARTCHAR germandbls
ENCODING 223
SWIDTH 547 0
DWIDTH 8 0
BBX 6 11 1 0
BITMAP
70
88
88
90
90
90
88
84
84
84
B8
ENDCHAR
STARTCHAR agrave
ENCODING 224
SWIDTH 524 0
DWIDTH 8 0
BBX 7 12 0 0
BITMAP
10
10
08
00
3C
42
02
3E
42
82
86
7A
ENDCHAR
STARTCHAR aacute
ENCODING 225
SWIDTH 524 0
DWIDTH 8 0
BBX 7 12 0 0
BITMAP
08
08
10
00
3C
42
02
3E
42
82
86
7A
ENDCHAR
STARTCHAR acircumflex
ENCODING 226
SWIDTH 524 0
DWIDTH 8 0
BBX 7 12 0 0
BITMAP
10
28
44
00
3C
42
02
3E
42
82
86
7A
ENDCHAR
STARTCHAR atilde
ENCODING 227
SWIDTH 524 0
DWIDTH 8 0
BBX 7 11 0 0
BITMAP
32
4C
00
3C
42
02
3E
42
82
86
7A
ENDCHAR
STARTCHAR adieresis
ENCODING 228
SWIDTH 524 0
DWIDTH 8 0
BBX 7 10 0 0
BITMAP
24
00
3C
42
02
3E
42
82
86
7A
ENDCHAR
STARTCHAR aring
ENCODING 229
SWIDTH 524 0
DWIDTH 8 0
BBX 7 12 0 0
BITMAP
18
24
24
18
3C
42
02
3E
42
82
86
7A
ENDCHAR
STARTCHAR ae
ENCODING 230
SWIDTH 879 0
DWIDTH 13 0
BBX 12 8 0 0
BITMAP
39C0
4620
0410
3FF0
4400
8400
8E10
71E0
ENDCHAR
STARTCHAR ccedilla
ENCODING 231
SWIDTH 460 0
DWIDTH 7 0
BBX 6 11 0 -3
BITMAP
38
44
80
80
80
80
44
38
08
08
70
ENDCHAR
STARTCHAR egrave
ENCODING 232
SWIDTH 525 0
DWIDTH 8 0
BBX 7 12 0 0
BITMAP
10
10
08
00
38
44
82
FE
80
80
42
3C
ENDCHAR
STARTCHAR eacute
ENCODING 233
SWIDTH 525 0
DWIDTH 8 0
BBX 7 12 0 0
BITMAP
08
08
10
00
38
44
82
FE
80
80
42
3C
ENDCHAR
STARTCHAR ecircumflex
ENCODING 234
SWIDTH 525 0
DWIDTH 8 0
BBX 7 12 0 0
BITMAP
10
28
44
00
38
44
82
FE
80
80
42
3C
ENDCHAR
STARTCHAR edieresis
ENCODING 235
SWIDTH 525 0
DWIDTH 8 0
BBX 7 10 0 0
BITMAP
24
00
38
44
82
FE
80
80
42
3C
ENDCHAR
STARTCHAR igrave
ENCODING 236
SWIDTH 229 0
DWIDTH 2 0
BBX 1 1 1 -3
BITMAP
00
ENDCHAR
STARTCHAR iacute
ENCODING 237
SWIDTH 229 0
DWIDTH 2 0
BBX 2 12 0 0
BITMAP
40
40
80
00
80
80
80
80
80
80
80
80
ENDCHAR
STARTCHAR icircumflex
ENCODING 238
SWIDTH 229 0
DWIDTH 2 0
BBX 2 12 0 0
BITMAP
80
40
40
00
80
80
80
80
80
80
80
80
ENDCHAR
STARTCHAR idieresis
ENCODING 239
SWIDTH 229 0
DWIDTH 2 0
BBX 2 10 0 0
BITMAP
40
00
80
80
80
80
80
80
80
80
ENDCHAR
STARTCHAR eth
ENCODING 240
SWIDTH 545 0
DWIDTH 8 0
BBX 7 11 0 0
BITMAP
24
18
24
04
3E
42
82
82
82
44
38
ENDCHAR
STARTCHAR ntilde
ENCODING 241
SWIDTH 558 0
DWIDTH 8 0
BBX 7 11 0 0
BITMAP
32
4C
00
BC
C2
82
82
82
82
82
82
ENDCHAR
STARTCHAR ograve
ENCODING 242
SWIDTH 542 0
DWIDTH 8 0
BBX 7 12 0 0
BITMAP
20
20
10
00
38
44
82
82
82
82
44
38
ENDCHAR
STARTCHAR oacute
ENCODING 243
SWIDTH 542 0
DWIDTH 8 0
BBX 7 12 0 0
BITMAP
08
08
10
00
38
44
82
82
82
82
44
38
ENDCHAR
STARTCHAR ocircumflex
ENCODING 244
SWIDTH 542 0
DWIDTH 8 0
BBX 7 12 0 0
BITMAP
10
28
44
00
38
44
82
82
82
82
44
38
ENDCHAR
STARTCHAR otilde
ENCODING 245
SWIDTH 542 0
DWIDTH 8 0
BBX 7 11 0 0
BITMAP
32
4C
00
38
44
82
82
82
82
44
38
ENDCHAR
STARTCHAR odieresis
ENCODING 246
SWIDTH 542 0
DWIDTH 8 0
BBX 7 10 0 0
BITMAP
44
00
38
44
82
82
82
82
44
38
ENDCHAR
STARTCHAR divide
ENCODING 247
SWIDTH 728 0
DWIDTH 11 0
BBX 9 9 1 0
BITMAP
0800
0800
0000
0000
FF80
0000
0000
0800
0800
ENDCHAR
STARTCHAR oslash
ENCODING 248
SWIDTH 542 0
DWIDTH 9 0
BBX 8 10 0 -1
BITMAP
01
3E
42
85
89
91
A1
42
7C
80
ENDCHAR
STARTCHAR ugrave
ENCODING 249
SWIDTH 558 0
DWIDTH 8 0
BBX 7 12 0 0
BITMAP
10
10
08
00
82
82
82
82
82
82
86
7A
ENDCHAR
STARTCHAR uacute
ENCODING 250
SWIDTH 558 0
DWIDTH 8 0
BBX 7 12 0 0
BITMAP
08
08
10
00
82
82
82
82
82
82
86
7A
ENDCHAR
STARTCHAR ucircumflex
ENCODING 251
SWIDTH 558 0
DWIDTH 8 0
BBX 7 12 0 0
BITMAP
10
28
44
00
82
82
82
82
82
82
86
7A
ENDCHAR
STARTCHAR udieresis
ENCODING 252
SWIDTH 558 0
DWIDTH 8 0
BBX 7 10 0 0
BITMAP
24
00
82
82
82
82
82
82
86
7A
ENDCHAR
STARTCHAR yacute
ENCODING 253
SWIDTH 498 0
DWIDTH 8 0
BBX 7 15 0 -3
BITMAP
08
08
10
00
82
82
44
44
28
28
10
10
10
20
20
ENDCHAR
STARTCHAR thorn
ENCODING 254
SWIDTH 553 0
DWIDTH 8 0
BBX 7 15 0 -3
BITMAP
80
80
80
80
B8
C4
82
82
82
82
84
F8
80
80
80
ENDCHAR
STARTCHAR ydieresis
ENCODING 255
SWIDTH 498 0
DWIDTH 8 0
BBX 7 13 0 -3
BITMAP
24
00
82
82
44
44
28
28
10
10
10
20
20
ENDCHAR
STARTCHAR Aogonek
ENCODING 260
SWIDTH 600 0
DWIDTH 9 0
BBX 8 13 0 -2
BITMAP
18
18
24
24
24
24
42
7E
42
81
81
02
03
ENDCHAR
STARTCHAR aogonek
ENCODING 261
SWIDTH 524 0
DWIDTH 8 0
BBX 7 10 0 -2
BITMAP
3C
42
02
3E
42
82
86
7A
04
06
ENDCHAR
STARTCHAR Ccaron
ENCODING 268
SWIDTH 601 0
DWIDTH 9 0
BBX 8 15 0 0
BITMAP
11
0A
04
00
1E
21
40
80
80
80
80
80
40
21
1E
ENDCHAR
STARTCHAR ccaron
ENCODING 269
SWIDTH 460 0
DWIDTH 7 0
BBX 6 12 0 0
BITMAP
44
28
10
00
38
44
80
80
80
80
44
38
ENDCHAR
STARTCHAR Edotaccent
ENCODING 278
SWIDTH 561 0
DWIDTH 8 0
BBX 7 13 1 0
BITMAP
10
00
FE
80
80
80
FE
80
80
80
80
80
FE
ENDCHAR
STARTCHAR edotaccent
ENCODING 279
SWIDTH 525 0
DWIDTH 8 0
BBX 7 11 0 0
BITMAP
10
00
00
38
44
82
FE
80
80
42
3C
ENDCHAR
STARTCHAR Eogonek
ENCODING 280
SWIDTH 561 0
DWIDTH 8 0
BBX 7 13 0 -2
BITMAP
FE
80
80
80
FE
80
80
80
80
80
FE
04
06
ENDCHAR
STARTCHAR eogonek
ENCODING 281
SWIDTH 525 0
DWIDTH 8 0
BBX 7 10 0 -2
BITMAP
38
44
82
FE
80
80
42
3C
08
0C
ENDCHAR
STARTCHAR Iogonek
ENCODING 302
SWIDTH 373 0
DWIDTH 6 0
BBX 3 13 1 -2
BITMAP
E0
40
40
40
40
40
40
40
40
40
E0
40
60
ENDCHAR
STARTCHAR iogonek
ENCODING 303
SWIDTH 229 0
DWIDTH 3 0
BBX 2 13 0 -2
BITMAP
40
00
40
40
40
40
40
40
40
40
40
80
C0
ENDCHAR
STARTCHAR OE
ENCODING 338
SWIDTH 977 0
DWIDTH 15 0
BBX 14 11 0 0
BITMAP
1FFC
6100
4100
8100
81FC
8100
8100
8100
4100
6100
1FFC
ENDCHAR
STARTCHAR oe
ENCODING 339
SWIDTH 909 0
DWIDTH 14 0
BBX 13 8 0 0
BITMAP
38E0
4510
8208
83F8
8200
8200
4508
38F0
ENDCHAR
STARTCHAR Scaron
ENCODING 352
SWIDTH 557 0
DWIDTH 8 0
BBX 7 15 0 0
BITMAP
44
28
10
00
3C
42
80
80
40
38
04
02
02
84
78
ENDCHAR
STARTCHAR scaron
ENCODING 353
SWIDTH 445 0
DWIDTH 7 0
BBX 6 12 0 0
BITMAP
44
28
10
00
78
84
80
60
18
04
84
78
ENDCHAR
STARTCHAR Umacron
ENCODING 362
SWIDTH 655 0
DWIDTH 10 0
BBX 9 13 0 0
BITMAP
7F00
0000
8080
8080
8080
8080
8080
8080
8080
8080
8080
4100
3E00
ENDCHAR
STARTCHAR umacron
ENCODING 363
SWIDTH 558 0
DWIDTH 8 0
BBX 7 10 0 0
BITMAP
FE
00
82
82
82
82
82
82
86
7A
ENDCHAR
STARTCHAR Uogonek
ENCODING 370
SWIDTH 655 0
DWIDTH 10 0
BBX 9 13 0 -2
BITMAP
8080
8080
8080
8080
8080
8080
8080
8080
8080
4100
3E00
0200
0300
ENDCHAR
STARTCHAR uogonek
ENCODING 371
SWIDTH 558 0
DWIDTH 8 0
BBX 7 10 0 -2
BITMAP
82
82
82
82
82
82
86
7A
04
06
ENDCHAR
STARTCHAR Ydieresis
ENCODING 376
SWIDTH 576 0
DWIDTH 10 0
BBX 9 13 0 0
BITMAP
1200
0000
8080
4100
2200
2200
1400
0800
0800
0800
0800
0800
0800
ENDCHAR
STARTCHAR Zcaron
ENCODING 381
SWIDTH 559 0
DWIDTH 8 0
BBX 7 15 0 0
BITMAP
44
28
10
00
FE
02
04
08
08
10
20
20
40
80
FE
ENDCHAR
STARTCHAR zcaron
ENCODING 382
SWIDTH 443 0
DWIDTH 7 0
BBX 6 12 0 0
BITMAP
44
28
10
00
FC
04
08
10
20
40
80
FC
ENDCHAR
STARTCHAR florin
ENCODING 402
SWIDTH 545 0
DWIDTH 8 0
BBX 8 12 0 -1
BITMAP
07
08
08
08
3E
08
10
10
10
10
10
E0
ENDCHAR
STARTCHAR Scommaaccent
ENCODING 536
SWIDTH 557 0
DWIDTH 8 0
BBX 7 14 0 -3
BITMAP
3C
42
80
80
40
38
04
02
02
84
78
00
08
18
ENDCHAR
STARTCHAR scommaaccent
ENCODING 537
SWIDTH 445 0
DWIDTH 7 0
BBX 6 11 0 -3
BITMAP
78
84
80
60
18
04
84
78
00
10
30
ENDCHAR
STARTCHAR uni021A
ENCODING 538
SWIDTH 583 0
DWIDTH 9 0
BBX 9 14 0 -3
BITMAP
FF80
0800
0800
0800
0800
0800
0800
0800
0800
0800
0800
0000
0800
1800
ENDCHAR
STARTCHAR uni021B
ENCODING 539
SWIDTH 333 0
DWIDTH 5 0
BBX 5 13 0 -3
BITMAP
40
40
F8
40
40
40
40
40
40
38
00
10
30
ENDCHAR
STARTCHAR circumflex
ENCODING 710
SWIDTH 545 0
DWIDTH 8 0
BBX 5 3 2 9
BITMAP
20
50
88
ENDCHAR
STARTCHAR uni02C9
ENCODING 713
SWIDTH 545 0
DWIDTH 8 0
BBX 8 1 0 12
BITMAP
FF
ENDCHAR
STARTCHAR tilde
ENCODING 732
SWIDTH 545 0
DWIDTH 8 0
BBX 6 2 1 9
BITMAP
64
98
ENDCHAR
STARTCHAR uni0326
ENCODING 806
SWIDTH 545 0
DWIDTH 8 0
BBX 3 2 2 -3
BITMAP
60
C0
ENDCHAR
STARTCHAR pi
ENCODING 960
SWIDTH 562 0
DWIDTH 8 0
BBX 7 8 0 0
BITMAP
7E
A4
24
24
48
48
48
46
ENDCHAR
STARTCHAR uni0400
ENCODING 1024
SWIDTH 561 0
DWIDTH 8 0
BBX 7 15 0 0
BITMAP
10
10
08
00
FE
80
80
80
FE
80
80
80
80
80
FE
ENDCHAR
STARTCHAR afii10023
ENCODING 1025
SWIDTH 561 0
DWIDTH 8 0
BBX 7 13 0 0
BITMAP
24
00
FE
80
80
80
FE
80
80
80
80
80
FE
ENDCHAR
STARTCHAR afii10052
ENCODING 1027
SWIDTH 507 0
DWIDTH 8 0
BBX 7 15 0 0
BITMAP
08
08
10
00
FE
80
80
80
80
80
80
80
80
80
80
ENDCHAR
STARTCHAR afii10053
ENCODING 1028
SWIDTH 599 0
DWIDTH 9 0
BBX 8 11 0 0
BITMAP
3E
41
80
80
80
FC
80
80
80
41
3E
ENDCHAR
STARTCHAR afii10054
ENCODING 1029
SWIDTH 557 0
DWIDTH 8 0
BBX 7 11 0 0
BITMAP
3C
42
80
80
40
38
04
02
02
84
78
ENDCHAR
STARTCHAR afii10055
ENCODING 1030
SWIDTH 373 0
DWIDTH 6 0
BBX 3 11 1 0
BITMAP
E0
40
40
40
40
40
40
40
40
40
E0
ENDCHAR
STARTCHAR afii10056
ENCODING 1031
SWIDTH 373 0
DWIDTH 6 0
BBX 3 13 1 0
BITMAP
A0
00
E0
40
40
40
40
40
40
40
40
40
E0
ENDCHAR
STARTCHAR afii10057
ENCODING 1032
SWIDTH 416 0
DWIDTH 6 0
BBX 4 14 0 -3
BITMAP
10
10
10
10
10
10
10
10
10
10
10
10
10
E0
ENDCHAR
STARTCHAR afii10061
ENCODING 1036
SWIDTH 602 0
DWIDTH 9 0
BBX 8 15 0 0
BITMAP
08
08
10
00
82
84
88
90
A0
E0
90
88
84
82
81
ENDCHAR
STARTCHAR uni040D
ENCODING 1037
SWIDTH 669 0
DWIDTH 10 0
BBX 9 15 0 0
BITMAP
1000
1000
0800
0000
8080
8180
8280
8480
8480
8880
9080
A080
A080
C080
8080
ENDCHAR
STARTCHAR afii10062
ENCODING 1038
SWIDTH 575 0
DWIDTH 9 0
BBX 8 14 0 0
BITMAP
22
1C
00
81
81
41
42
22
24
14
08
08
10
60
ENDCHAR
STARTCHAR afii10017
ENCODING 1040
SWIDTH 600 0
DWIDTH 9 0
BBX 9 11 0 0
BITMAP
0800
0800
1400
1400
2200
2200
7F00
4100
4100
8080
8080
ENDCHAR
STARTCHAR afii10018
ENCODING 1041
SWIDTH 588 0
DWIDTH 9 0
BBX 8 11 0 0
BITMAP
FF
80
80
80
FC
82
81
81
81
82
FC
ENDCHAR
STARTCHAR afii10019
ENCODING 1042
SWIDTH 588 0
DWIDTH 9 0
BBX 8 11 0 0
BITMAP
FC
82
82
82
FC
82
81
81
81
82
FC
ENDCHAR
STARTCHAR afii10020
ENCODING 1043
SWIDTH 507 0
DWIDTH 8 0
BBX 7 11 0 0
BITMAP
FE
80
80
80
80
80
80
80
80
80
80
ENDCHAR
STARTCHAR afii10021
ENCODING 1044
SWIDTH 683 0
DWIDTH 10 0
BBX 9 13 0 -2
BITMAP
1F00
1100
2100
2100
2100
2100
2100
2100
2100
4100
FF80
8080
8080
ENDCHAR
STARTCHAR afii10022
ENCODING 1045
SWIDTH 561 0
DWIDTH 8 0
BBX 7 11 0 0
BITMAP
FE
80
80
80
FE
80
80
80
80
80
FE
ENDCHAR
STARTCHAR afii10024
ENCODING 1046
SWIDTH 894 0
DWIDTH 13 0
BBX 13 11 0 0
BITMAP
8208
4210
2220
1240
0A80
0700
0A80
1240
2220
4210
8208
ENDCHAR
STARTCHAR afii10025
ENCODING 1047
SWIDTH 532 0
DWIDTH 8 0
BBX 7 11 0 0
BITMAP
78
84
02
02
04
38
04
02
02
84
78
ENDCHAR
STARTCHAR afii10026
ENCODING 1048
SWIDTH 669 0
DWIDTH 10 0
BBX 9 11 0 0
BITMAP
8080
8180
8280
8480
8480
8880
9080
A080
A080
C080
8080
ENDCHAR
STARTCHAR afii10027
ENCODING 1049
SWIDTH 669 0
DWIDTH 10 0
BBX 9 14 0 0
BITMAP
2200
1C00
0000
8080
8180
8280
8480
8480
8880
9080
A080
A080
C080
8080
ENDCHAR
STARTCHAR afii10028
ENCODING 1050
SWIDTH 587 0
DWIDTH 9 0
BBX 8 11 0 0
BITMAP
82
84
88
90
A0
E0
90
88
84
82
81
ENDCHAR
STARTCHAR afii10029
ENCODING 1051
SWIDTH 677 0
DWIDTH 10 0
BBX 9 11 0 0
BITMAP
0F80
1080
2080
2080
2080
2080
2080
2080
2080
2080
C080
ENDCHAR
STARTCHAR afii10030
ENCODING 1052
SWIDTH 770 0
DWIDTH 12 0
BBX 11 11 0 0
BITMAP
C060
A0A0
A0A0
9120
9120
8A20
8A20
8420
8020
8020
8020
ENDCHAR
STARTCHAR afii10031
ENCODING 1053
SWIDTH 674 0
DWIDTH 10 0
BBX 9 11 0 0
BITMAP
8080
8080
8080
8080
FF80
8080
8080
8080
8080
8080
8080
ENDCHAR
STARTCHAR afii10032
ENCODING 1054
SWIDTH 708 0
DWIDTH 11 0
BBX 10 11 0 0
BITMAP
1E00
2100
4080
8040
8040
8040
8040
8040
4080
2100
1E00
ENDCHAR
STARTCHAR afii10033
ENCODING 1055
SWIDTH 675 0
DWIDTH 10 0
BBX 9 11 0 0
BITMAP
FF80
8080
8080
8080
8080
8080
8080
8080
8080
8080
8080
ENDCHAR
STARTCHAR afii10034
ENCODING 1056
SWIDTH 550 0
DWIDTH 8 0
BBX 7 11 0 0
BITMAP
F8
84
82
82
82
84
F8
80
80
80
80
ENDCHAR
STARTCHAR afii10035
ENCODING 1057
SWIDTH 601 0
DWIDTH 9 0
BBX 8 11 0 0
BITMAP
1E
21
40
80
80
80
80
80
40
21
1E
ENDCHAR
STARTCHAR afii10036
ENCODING 1058
SWIDTH 583 0
DWIDTH 10 0
BBX 9 11 0 0
BITMAP
FF80
0800
0800
0800
0800
0800
0800
0800
0800
0800
0800
ENDCHAR
STARTCHAR afii10037
ENCODING 1059
SWIDTH 575 0
DWIDTH 9 0
BBX 8 11 0 0
BITMAP
81
81
41
42
22
24
14
08
08
10
60
ENDCHAR
STARTCHAR afii10038
ENCODING 1060
SWIDTH 748 0
DWIDTH 11 0
BBX 9 11 1 0
BITMAP
0800
3E00
4900
8880
8880
8880
8880
8880
4900
3E00
0800
ENDCHAR
STARTCHAR afii10039
ENCODING 1061
SWIDTH 581 0
DWIDTH 9 0
BBX 8 11 0 0
BITMAP
81
42
42
24
18
18
18
24
42
42
81
ENDCHAR
STARTCHAR afii10040
ENCODING 1062
SWIDTH 685 0
DWIDTH 10 0
BBX 9 13 0 -2
BITMAP
8100
8100
8100
8100
8100
8100
8100
8100
8100
8100
FF80
0080
0080
ENDCHAR
STARTCHAR afii10041
ENCODING 1063
SWIDTH 635 0
DWIDTH 10 0
BBX 8 11 0 0
BITMAP
81
81
81
81
81
41
3F
01
01
01
01
ENDCHAR
STARTCHAR afii10042
ENCODING 1064
SWIDTH 943 0
DWIDTH 14 0
BBX 13 11 0 0
BITMAP
8208
8208
8208
8208
8208
8208
8208
8208
8208
8208
FFF8
ENDCHAR
STARTCHAR afii10043
ENCODING 1065
SWIDTH 958 0
DWIDTH 14 0
BBX 14 13 0 -2
BITMAP
8208
8208
8208
8208
8208
8208
8208
8208
8208
8208
FFFC
0004
0004
ENDCHAR
STARTCHAR afii10044
ENCODING 1066
SWIDTH 689 0
DWIDTH 10 0
BBX 9 11 0 0
BITMAP
E000
2000
2000
2000
3E00
2100
2080
2080
2080
2100
3E00
ENDCHAR
STARTCHAR afii10045
ENCODING 1067
SWIDTH 788 0
DWIDTH 12 0
BBX 10 11 0 0
BITMAP
8040
8040
8040
8040
F840
8440
8240
8240
8240
8440
F840
ENDCHAR
STARTCHAR afii10046
ENCODING 1068
SWIDTH 582 0
DWIDTH 9 0
BBX 7 11 0 0
BITMAP
80
80
80
80
F8
84
82
82
82
84
F8
ENDCHAR
STARTCHAR afii10047
ENCODING 1069
SWIDTH 599 0
DWIDTH 9 0
BBX 8 11 0 0
BITMAP
7C
82
01
01
01
3F
01
01
01
82
7C
ENDCHAR
STARTCHAR afii10048
ENCODING 1070
SWIDTH 951 0
DWIDTH 14 0
BBX 12 11 1 0
BITMAP
87C0
8820
9010
9010
9010
F010
9010
9010
9010
8820
87C0
ENDCHAR
STARTCHAR afii10049
ENCODING 1071
SWIDTH 611 0
DWIDTH 9 0
BBX 8 11 0 0
BITMAP
1F
21
41
41
41
21
1F
21
41
41
81
ENDCHAR
STARTCHAR afii10065
ENCODING 1072
SWIDTH 524 0
DWIDTH 8 0
BBX 7 8 0 0
BITMAP
3C
42
02
3E
42
82
86
7A
ENDCHAR
STARTCHAR afii10066
ENCODING 1073
SWIDTH 549 0
DWIDTH 8 0
BBX 7 11 0 0
BITMAP
04
18
20
40
78
84
82
82
82
44
38
ENDCHAR
STARTCHAR afii10067
ENCODING 1074
SWIDTH 524 0
DWIDTH 8 0
BBX 6 8 1 0
BITMAP
F8
84
84
F8
84
84
84
F8
ENDCHAR
STARTCHAR afii10068
ENCODING 1075
SWIDTH 415 0
DWIDTH 6 0
BBX 5 8 0 0
BITMAP
F8
80
80
80
80
80
80
80
ENDCHAR
STARTCHAR afii10069
ENCODING 1076
SWIDTH 558 0
DWIDTH 8 0
BBX 8 9 0 -1
BITMAP
1E
22
22
22
22
22
42
FF
81
ENDCHAR
STARTCHAR afii10070
ENCODING 1077
SWIDTH 526 0
DWIDTH 8 0
BBX 7 8 0 0
BITMAP
38
44
82
FE
80
80
42
3C
ENDCHAR
STARTCHAR afii10072
ENCODING 1078
SWIDTH 730 0
DWIDTH 11 0
BBX 9 8 1 0
BITMAP
8880
4900
2A00
1C00
1C00
2A00
4900
8880
ENDCHAR
STARTCHAR afii10073
ENCODING 1079
SWIDTH 457 0
DWIDTH 7 0
BBX 6 8 0 0
BITMAP
78
84
04
38
04
04
84
78
ENDCHAR
STARTCHAR afii10074
ENCODING 1080
SWIDTH 563 0
DWIDTH 8 0
BBX 7 8 0 0
BITMAP
82
82
86
8A
92
A2
C2
82
ENDCHAR
STARTCHAR afii10075
ENCODING 1081
SWIDTH 563 0
DWIDTH 8 0
BBX 7 11 0 0
BITMAP
44
38
00
82
82
86
8A
92
A2
C2
82
ENDCHAR
STARTCHAR afii10076
ENCODING 1082
SWIDTH 498 0
DWIDTH 7 0
BBX 6 8 0 0
BITMAP
88
90
A0
C0
A0
90
88
84
ENDCHAR
STARTCHAR afii10077
ENCODING 1083
SWIDTH 555 0
DWIDTH 8 0
BBX 7 8 0 0
BITMAP
3E
42
42
42
42
42
42
82
ENDCHAR
STARTCHAR afii10078
ENCODING 1084
SWIDTH 638 0
DWIDTH 10 0
BBX 9 8 0 0
BITMAP
8080
C180
A280
9480
8880
8880
8080
8080
ENDCHAR
STARTCHAR afii10079
ENCODING 1085
SWIDTH 562 0
DWIDTH 8 0
BBX 7 8 0 0
BITMAP
82
82
82
FE
82
82
82
82
ENDCHAR
STARTCHAR afii10080
ENCODING 1086
SWIDTH 542 0
DWIDTH 8 0
BBX 7 8 0 0
BITMAP
38
44
82
82
82
82
44
38
ENDCHAR
STARTCHAR afii10081
ENCODING 1087
SWIDTH 563 0
DWIDTH 8 0
BBX 7 8 0 0
BITMAP
FE
82
82
82
82
82
82
82
ENDCHAR
STARTCHAR afii10082
ENCODING 1088
SWIDTH 552 0
DWIDTH 8 0
BBX 7 11 0 -3
BITMAP
B8
C4
82
82
82
82
C4
B8
80
80
80
ENDCHAR
STARTCHAR afii10083
ENCODING 1089
SWIDTH 461 0
DWIDTH 7 0
BBX 6 8 0 0
BITMAP
38
44
80
80
80
80
44
38
ENDCHAR
STARTCHAR afii10084
ENCODING 1090
SWIDTH 466 0
DWIDTH 7 0
BBX 7 8 0 0
BITMAP
FE
10
10
10
10
10
10
10
ENDCHAR
STARTCHAR afii10085
ENCODING 1091
SWIDTH 498 0
DWIDTH 8 0
BBX 7 11 0 -3
BITMAP
82
82
44
44
28
28
10
10
10
20
20
ENDCHAR
STARTCHAR afii10086
ENCODING 1092
SWIDTH 759 0
DWIDTH 11 0
BBX 9 13 1 -3
BITMAP
0800
0800
7F00
8880
8880
8880
8880
8880
8880
7F00
0800
0800
0800
ENDCHAR
STARTCHAR afii10087
ENCODING 1093
SWIDTH 495 0
DWIDTH 8 0
BBX 7 8 0 0
BITMAP
82
44
28
10
10
28
44
82
ENDCHAR
STARTCHAR afii10088
ENCODING 1094
SWIDTH 571 0
DWIDTH 9 0
BBX 8 10 0 -2
BITMAP
82
82
82
82
82
82
82
FF
01
01
ENDCHAR
STARTCHAR afii10089
ENCODING 1095
SWIDTH 542 0
DWIDTH 8 0
BBX 6 8 1 0
BITMAP
84
84
84
84
7C
04
04
04
ENDCHAR
STARTCHAR afii10090
ENCODING 1096
SWIDTH 778 0
DWIDTH 12 0
BBX 11 8 0 0
BITMAP
8420
8420
8420
8420
8420
8420
8420
FFE0
ENDCHAR
STARTCHAR afii10091
ENCODING 1097
SWIDTH 790 0
DWIDTH 12 0
BBX 12 10 0 -2
BITMAP
8420
8420
8420
8420
8420
8420
8420
FFF0
0010
0010
ENDCHAR
STARTCHAR afii10092
ENCODING 1098
SWIDTH 568 0
DWIDTH 9 0
BBX 8 8 0 0
BITMAP
E0
20
20
3E
21
21
21
3E
ENDCHAR
STARTCHAR afii10093
ENCODING 1099
SWIDTH 692 0
DWIDTH 10 0
BBX 8 8 1 0
BITMAP
81
81
81
F9
85
85
85
F9
ENDCHAR
STARTCHAR afii10094
ENCODING 1100
SWIDTH 500 0
DWIDTH 8 0
BBX 6 8 1 0
BITMAP
80
80
80
F8
84
84
84
F8
ENDCHAR
STARTCHAR afii10095
ENCODING 1101
SWIDTH 471 0
DWIDTH 7 0
BBX 6 8 0 0
BITMAP
70
88
04
3C
04
04
88
70
ENDCHAR
STARTCHAR afii10096
ENCODING 1102
SWIDTH 761 0
DWIDTH 11 0
BBX 9 8 1 0
BITMAP
8F00
9080
9080
F080
9080
9080
9080
8F00
ENDCHAR
STARTCHAR afii10097
ENCODING 1103
SWIDTH 500 0
DWIDTH 8 0
BBX 6 8 1 0
BITMAP
7C
84
84
84
7C
24
44
84
ENDCHAR
STARTCHAR uni0450
ENCODING 1104
SWIDTH 526 0
DWIDTH 8 0
BBX 7 12 0 0
BITMAP
10
10
08
00
38
44
82
FE
80
80
42
3C
ENDCHAR
STARTCHAR afii10071
ENCODING 1105
SWIDTH 526 0
DWIDTH 8 0
BBX 7 10 0 0
BITMAP
44
00
38
44
82
FE
80
80
42
3C
ENDCHAR
STARTCHAR afii10100
ENCODING 1107
SWIDTH 415 0
DWIDTH 6 0
BBX 5 12 0 0
BITMAP
10
10
20
00
F8
80
80
80
80
80
80
80
ENDCHAR
STARTCHAR afii10101
ENCODING 1108
SWIDTH 471 0
DWIDTH 7 0
BBX 6 8 0 0
BITMAP
38
44
80
F0
80
80
44
38
ENDCHAR
STARTCHAR afii10102
ENCODING 1109
SWIDTH 446 0
DWIDTH 7 0
BBX 6 8 0 0
BITMAP
78
84
80
60
18
04
84
78
ENDCHAR
STARTCHAR afii10103
ENCODING 1110
SWIDTH 228 0
DWIDTH 3 0
BBX 1 11 0 0
BITMAP
80
00
00
80
80
80
80
80
80
80
80
ENDCHAR
STARTCHAR afii10104
ENCODING 1111
SWIDTH 228 0
DWIDTH 3 0
BBX 3 11 0 0
BITMAP
A0
00
00
40
40
40
40
40
40
40
40
ENDCHAR
STARTCHAR afii10105
ENCODING 1112
SWIDTH 281 0
DWIDTH 4 0
BBX 3 14 0 -3
BITMAP
20
00
00
20
20
20
20
20
20
20
20
20
20
C0
ENDCHAR
STARTCHAR afii10109
ENCODING 1116
SWIDTH 498 0
DWIDTH 7 0
BBX 6 12 0 0
BITMAP
10
10
20
00
88
90
A0
C0
A0
90
88
84
ENDCHAR
STARTCHAR uni045D
ENCODING 1117
SWIDTH 563 0
DWIDTH 8 0
BBX 7 12 0 0
BITMAP
20
20
10
00
82
82
86
8A
92
A2
C2
82
ENDCHAR
STARTCHAR afii10110
ENCODING 1118
SWIDTH 498 0
DWIDTH 8 0
BBX 7 14 0 -3
BITMAP
44
38
00
82
82
44
44
28
28
10
10
10
20
20
ENDCHAR
STARTCHAR afii10050
ENCODING 1168
SWIDTH 507 0
DWIDTH 8 0
BBX 7 12 0 0
BITMAP
02
FE
80
80
80
80
80
80
80
80
80
80
ENDCHAR
STARTCHAR afii10098
ENCODING 1169
SWIDTH 415 0
DWIDTH 6 0
BBX 5 9 0 0
BITMAP
08
F8
80
80
80
80
80
80
80
ENDCHAR
STARTCHAR uni0492
ENCODING 1170
SWIDTH 507 0
DWIDTH 8 0
BBX 8 11 -1 0
BITMAP
7F
40
40
40
FC
40
40
40
40
40
40
ENDCHAR
STARTCHAR uni0493
ENCODING 1171
SWIDTH 415 0
DWIDTH 6 0
BBX 6 8 -1 0
BITMAP
7C
40
40
F8
40
40
40
40
ENDCHAR
STARTCHAR uni049A
ENCODING 1178
SWIDTH 587 0
DWIDTH 9 0
BBX 9 13 0 -2
BITMAP
8200
8400
8800
9000
A000
E000
9000
8800
8400
8200
8180
0080
0080
ENDCHAR
STARTCHAR uni049B
ENCODING 1179
SWIDTH 498 0
DWIDTH 7 0
BBX 7 10 0 -2
BITMAP
88
90
A0
C0
A0
90
88
86
02
02
ENDCHAR
STARTCHAR uni04A2
ENCODING 1186
SWIDTH 674 0
DWIDTH 10 0
BBX 10 13 0 -2
BITMAP
8080
8080
8080
8080
FF80
8080
8080
8080
8080
8080
80C0
0040
0040
ENDCHAR
STARTCHAR uni04A3
ENCODING 1187
SWIDTH 562 0
DWIDTH 8 0
BBX 8 10 0 -2
BITMAP
82
82
82
FE
82
82
82
83
01
01
ENDCHAR
STARTCHAR uni04AE
ENCODING 1198
SWIDTH 576 0
DWIDTH 10 0
BBX 9 11 0 0
BITMAP
8080
4100
2200
2200
1400
0800
0800
0800
0800
0800
0800
ENDCHAR
STARTCHAR uni04AF
ENCODING 1199
SWIDTH 498 0
DWIDTH 8 0
BBX 7 11 0 -3
BITMAP
82
82
44
44
28
28
10
10
10
10
10
ENDCHAR
STARTCHAR uni04B0
ENCODING 1200
SWIDTH 576 0
DWIDTH 10 0
BBX 9 11 0 0
BITMAP
8080
4100
2200
2200
1400
0800
3E00
0800
0800
0800
0800
ENDCHAR
STARTCHAR uni04B1
ENCODING 1201
SWIDTH 498 0
DWIDTH 8 0
BBX 7 11 0 -3
BITMAP
82
82
44
44
28
28
10
7C
10
10
10
ENDCHAR
STARTCHAR uni04BA
ENCODING 1210
SWIDTH 558 0
DWIDTH 8 0
BBX 7 11 0 0
BITMAP
80
80
80
80
BC
C2
82
82
82
82
82
ENDCHAR
STARTCHAR uni04BB
ENCODING 1211
SWIDTH 558 0
DWIDTH 8 0
BBX 7 10 0 0
BITMAP
80
80
80
80
BC
C2
82
82
82
82
ENDCHAR
STARTCHAR uni04D8
ENCODING 1240
SWIDTH 599 0
DWIDTH 9 0
BBX 8 11 0 0
BITMAP
3C
42
01
01
01
FF
81
81
81
42
3C
ENDCHAR
STARTCHAR afii10846
ENCODING 1241
SWIDTH 471 0
DWIDTH 7 0
BBX 6 8 0 0
BITMAP
70
08
04
FC
84
84
48
30
ENDCHAR
STARTCHAR uni04E8
ENCODING 1256
SWIDTH 708 0
DWIDTH 11 0
BBX 10 11 0 0
BITMAP
1E00
2100
4080
8040
8040
FFC0
8040
8040
4080
2100
1E00
ENDCHAR
STARTCHAR uni04E9
ENCODING 1257
SWIDTH 542 0
DWIDTH 8 0
BBX 7 8 0 0
BITMAP
38
44
82
FE
82
82
44
38
ENDCHAR
STARTCHAR endash
ENCODING 8211
SWIDTH 545 0
DWIDTH 8 0
BBX 8 1 0 4
BITMAP
FF
ENDCHAR
STARTCHAR emdash
ENCODING 8212
SWIDTH 909 0
DWIDTH 14 0
BBX 14 1 0 4
BITMAP
FFFC
ENDCHAR
STARTCHAR quoteleft
ENCODING 8216
SWIDTH 210 0
DWIDTH 3 0
BBX 1 1 0 8
BITMAP
80
ENDCHAR
STARTCHAR quoteright
ENCODING 8217
SWIDTH 210 0
DWIDTH 3 0
BBX 2 4 0 8
BITMAP
40
40
40
80
ENDCHAR
STARTCHAR quotesinglbase
ENCODING 8218
SWIDTH 210 0
DWIDTH 3 0
BBX 2 4 0 -2
BITMAP
40
40
40
80
ENDCHAR
STARTCHAR quotedblleft
ENCODING 8220
SWIDTH 400 0
DWIDTH 6 0
BBX 4 4 0 8
BITMAP
20
20
20
90
ENDCHAR
STARTCHAR quotedblright
ENCODING 8221
SWIDTH 400 0
DWIDTH 6 0
BBX 5 4 0 8
BITMAP
48
48
48
90
ENDCHAR
STARTCHAR quotedblbase
ENCODING 8222
SWIDTH 396 0
DWIDTH 6 0
BBX 5 4 0 -2
BITMAP
48
48
48
90
ENDCHAR
STARTCHAR dagger
ENCODING 8224
SWIDTH 545 0
DWIDTH 8 0
BBX 7 11 0 1
BITMAP
10
10
10
FE
10
10
10
10
10
10
10
ENDCHAR
STARTCHAR daggerdbl
ENCODING 8225
SWIDTH 545 0
DWIDTH 8 0
BBX 7 11 0 1
BITMAP
10
10
10
FE
10
10
10
FE
10
10
10
ENDCHAR
STARTCHAR bullet
ENCODING 8226
SWIDTH 455 0
DWIDTH 7 0
BBX 5 5 1 2
BITMAP
70
F8
F8
F8
70
ENDCHAR
STARTCHAR ellipsis
ENCODING 8230
SWIDTH 816 0
DWIDTH 12 0
BBX 9 2 1 0
BITMAP
8880
8880
ENDCHAR
STARTCHAR perthousand
ENCODING 8240
SWIDTH 1391 0
DWIDTH 21 0
BBX 19 11 1 0
BITMAP
704000
888000
888000
890000
890000
7271C0
048A20
048A20
088A20
088A20
1071C0
ENDCHAR
STARTCHAR guilsinglleft
ENCODING 8249
SWIDTH 382 0
DWIDTH 6 0
BBX 4 7 1 1
BITMAP
10
20
40
80
40
20
10
ENDCHAR
STARTCHAR guilsinglright
ENCODING 8250
SWIDTH 382 0
DWIDTH 6 0
BBX 4 7 1 1
BITMAP
80
40
20
10
20
40
80
ENDCHAR
STARTCHAR Euro
ENCODING 8364
SWIDTH 545 0
DWIDTH 8 0
BBX 7 11 0 0
BITMAP
1C
22
40
80
FC
80
FC
80
40
22
1C
ENDCHAR
STARTCHAR afii61352
ENCODING 8470
SWIDTH 666 0
DWIDTH 10 0
BBX 9 11 0 0
BITMAP
8580
C580
C400
A580
A400
B400
9400
9400
8C00
8C00
8400
ENDCHAR
STARTCHAR trademark
ENCODING 8482
SWIDTH 875 0
DWIDTH 13 0
BBX 12 5 0 6
BITMAP
FA10
2330
22D0
22D0
2210
ENDCHAR
STARTCHAR uniFB01
ENCODING 64257
SWIDTH 533 0
DWIDTH 8 0
BBX 7 12 0 0
BITMAP
38
42
40
40
F2
42
42
42
42
42
42
42
ENDCHAR
STARTCHAR uniFB02
ENCODING 64258
SWIDTH 529 0
DWIDTH 8 0
BBX 7 12 0 0
BITMAP
3A
42
42
42
F2
42
42
42
42
42
42
42
ENDCHAR
STARTCHAR .null
ENCODING -1
SWIDTH 0 0
DWIDTH 5 0
BBX 1 1 0 0
BITMAP
00
ENDCHAR
STARTCHAR nonmarkingreturn
ENCODING -1
SWIDTH 333 0
DWIDTH 5 0
BBX 1 1 0 0
BITMAP
00
ENDCHAR
ENDFONT
